<?xml version="1.0" encoding="utf-8"?>
<!-- Generator: Adobe Illustrator 16.0.4, SVG Export Plug-In . SVG Version: 6.00 Build 0)  -->
<!DOCTYPE svg PUBLIC "-//W3C//DTD SVG 1.1//EN" "http://www.w3.org/Graphics/SVG/1.1/DTD/svg11.dtd">
<svg version="1.1" id="Layer_1" xmlns="http://www.w3.org/2000/svg" xmlns:xlink="http://www.w3.org/1999/xlink" x="0px" y="0px"
	 width="350px" height="80px" viewBox="0 0 350 80" enable-background="new 0 0 350 80" xml:space="preserve">
<g id="Layer_1_1_">
	<g enable-background="new    ">
		<path fill="#333333" d="M38.451,25.865c3.602,0,6.291,2.273,6.291,6.003c0,3.585-2.529,6.547-6.387,6.547
			c-4.386,0-6.21-3.41-6.21-6.291C32.144,29.531,34.033,25.865,38.451,25.865z M38.787,37.807c1.441,0,4.418-0.833,4.418-5.49
			c0-3.842-2.337-5.906-4.866-5.906c-2.673,0-4.674,1.761-4.674,5.266C33.665,35.405,35.906,37.807,38.787,37.807z"/>
		<path fill="#333333" d="M48.305,36.334c0.032,1.12,0.16,1.456,0.544,1.553c0.256,0.063,0.576,0.08,0.704,0.08
			c0.064,0,0.112,0.048,0.112,0.111c0,0.08-0.096,0.112-0.256,0.112c-0.8,0-1.36-0.048-1.489-0.048c-0.128,0-0.72,0.048-1.36,0.048
			c-0.144,0-0.224-0.016-0.224-0.112c0-0.063,0.048-0.111,0.112-0.111c0.112,0,0.368-0.017,0.577-0.08
			c0.352-0.097,0.4-0.465,0.4-1.697v-7.795c0-0.544,0.08-0.688,0.192-0.688c0.16,0,0.4,0.272,0.544,0.416
			c0.224,0.225,2.273,2.401,4.45,4.643c1.393,1.44,2.897,3.057,3.33,3.505l-0.144-6.818c-0.016-0.881-0.096-1.185-0.528-1.265
			c-0.256-0.048-0.576-0.064-0.688-0.064c-0.096,0-0.112-0.079-0.112-0.128c0-0.08,0.112-0.096,0.272-0.096
			c0.64,0,1.312,0.032,1.473,0.032s0.624-0.032,1.201-0.032c0.144,0,0.256,0.016,0.256,0.096c0,0.049-0.064,0.128-0.16,0.128
			c-0.064,0-0.176,0-0.336,0.032c-0.464,0.097-0.496,0.368-0.496,1.185l-0.032,7.972c0,0.896-0.016,0.977-0.112,0.977
			c-0.144,0-0.288-0.112-1.073-0.833c-0.144-0.128-2.177-2.129-3.666-3.682c-1.632-1.712-3.217-3.377-3.649-3.857L48.305,36.334z"/>
		<path fill="#333333" d="M60.721,31.836c0-2.112,0-2.497-0.032-2.929c-0.032-0.465-0.112-0.688-0.577-0.753
			c-0.112-0.016-0.352-0.032-0.48-0.032c-0.048,0-0.112-0.063-0.112-0.111c0-0.08,0.064-0.112,0.224-0.112
			c0.641,0,1.553,0.032,1.633,0.032c0.096,0,3.042,0.016,3.361,0c0.272-0.017,0.528-0.064,0.64-0.08
			c0.064-0.017,0.128-0.064,0.192-0.064c0.048,0,0.064,0.064,0.064,0.128c0,0.097-0.08,0.257-0.112,0.641
			c-0.016,0.128-0.048,0.736-0.08,0.896c-0.016,0.063-0.064,0.144-0.128,0.144c-0.08,0-0.112-0.063-0.112-0.176
			c0-0.096-0.016-0.32-0.08-0.48c-0.096-0.224-0.24-0.319-1.008-0.416c-0.24-0.032-1.873-0.048-2.033-0.048
			c-0.064,0-0.08,0.048-0.08,0.145v3.697c0,0.096,0,0.144,0.08,0.144c0.176,0,2.033,0,2.353-0.031
			c0.336-0.032,0.544-0.049,0.688-0.192c0.096-0.096,0.16-0.176,0.208-0.176c0.048,0,0.08,0.031,0.08,0.111s-0.08,0.305-0.112,0.753
			c-0.032,0.271-0.064,0.784-0.064,0.88c0,0.112-0.032,0.256-0.128,0.256c-0.064,0-0.096-0.048-0.096-0.128
			c0-0.128,0-0.271-0.064-0.448c-0.048-0.191-0.176-0.352-0.72-0.416c-0.384-0.048-1.889-0.063-2.129-0.063
			c-0.08,0-0.096,0.048-0.096,0.096v1.137c0,0.464-0.016,2.049,0,2.32c0.032,0.913,0.288,1.089,1.681,1.089
			c0.368,0,1.04,0,1.408-0.145c0.368-0.16,0.561-0.399,0.641-0.944c0.032-0.16,0.064-0.208,0.144-0.208
			c0.08,0,0.096,0.112,0.096,0.208c0,0.097-0.112,1.024-0.192,1.312c-0.096,0.353-0.24,0.353-0.784,0.353
			c-1.057,0-1.873-0.032-2.449-0.048c-0.592-0.032-0.96-0.032-1.168-0.032c-0.032,0-0.304,0-0.608,0.016
			c-0.272,0.017-0.592,0.032-0.816,0.032c-0.144,0-0.224-0.032-0.224-0.112c0-0.048,0.032-0.111,0.112-0.111
			c0.128,0,0.304-0.048,0.432-0.064c0.272-0.048,0.304-0.32,0.368-0.72c0.08-0.561,0.08-1.633,0.08-2.945L60.721,31.836
			L60.721,31.836z"/>
	</g>
	<g enable-background="new    ">
		<path fill="#333333" d="M86.413,27.812c0,3.456,0,6.3,0.18,7.812c0.108,1.044,0.324,1.836,1.404,1.979
			c0.504,0.072,1.296,0.145,1.62,0.145c0.216,0,0.288,0.107,0.288,0.216c0,0.18-0.18,0.288-0.576,0.288
			c-1.979,0-4.248-0.108-4.427-0.108c-0.18,0-2.448,0.108-3.528,0.108c-0.396,0-0.576-0.072-0.576-0.288
			c0-0.108,0.072-0.216,0.288-0.216c0.324,0,0.756-0.072,1.08-0.145c0.72-0.144,0.9-0.936,1.044-1.979
			c0.18-1.512,0.18-4.355,0.18-7.812V12.586l-5.328,0.072c-2.231,0.035-3.096,0.287-3.671,1.151
			c-0.396,0.612-0.504,0.864-0.612,1.116c-0.108,0.288-0.216,0.359-0.36,0.359c-0.108,0-0.18-0.107-0.18-0.323
			c0-0.36,0.72-3.456,0.792-3.744c0.072-0.216,0.216-0.684,0.36-0.684c0.252,0,0.612,0.359,1.584,0.432
			c1.043,0.108,2.412,0.18,2.843,0.18h13.499c1.152,0,1.979-0.071,2.556-0.18c0.54-0.072,0.864-0.18,1.008-0.18
			c0.18,0,0.18,0.216,0.18,0.432c0,1.08-0.108,3.563-0.108,3.96c0,0.323-0.108,0.468-0.252,0.468c-0.18,0-0.252-0.108-0.288-0.612
			l-0.036-0.396c-0.108-1.08-0.972-1.908-4.427-1.979l-4.536-0.072L86.413,27.812L86.413,27.812z"/>
		<path fill="#333333" d="M121.404,29.359c0,2.952,0.036,5.363,0.18,6.623c0.108,0.9,0.18,1.477,1.152,1.62
			c0.432,0.072,1.152,0.145,1.404,0.145c0.216,0,0.288,0.144,0.288,0.252c0,0.144-0.18,0.252-0.54,0.252
			c-1.728,0-3.744-0.108-3.923-0.108c-0.144,0-2.196,0.108-3.132,0.108c-0.36,0-0.504-0.072-0.504-0.252
			c0-0.108,0.072-0.252,0.252-0.252c0.288,0,0.648-0.072,0.936-0.145c0.648-0.144,0.756-0.756,0.864-1.655
			c0.144-1.26,0.144-3.564,0.144-6.516v-3.06c0-0.144-0.072-0.18-0.18-0.18h-13.21c-0.108,0-0.18,0.036-0.18,0.18v3.06
			c0,2.951,0,5.291,0.144,6.551c0.108,0.9,0.216,1.477,1.152,1.62c0.468,0.072,1.152,0.145,1.44,0.145
			c0.18,0,0.252,0.144,0.252,0.252c0,0.144-0.144,0.252-0.504,0.252c-1.764,0-3.779-0.108-3.923-0.108
			c-0.18,0-2.196,0.108-3.167,0.108c-0.324,0-0.504-0.072-0.504-0.252c0-0.108,0.072-0.252,0.252-0.252
			c0.288,0,0.684-0.072,0.972-0.145c0.612-0.144,0.684-0.72,0.828-1.62c0.18-1.26,0.18-3.671,0.18-6.623V23.96
			c0-4.751,0-5.615-0.072-6.587c-0.072-1.044-0.252-1.548-1.296-1.691c-0.252-0.036-0.792-0.072-1.08-0.072
			c-0.108,0-0.252-0.144-0.252-0.252c0-0.18,0.144-0.252,0.504-0.252c1.439,0,3.456,0.072,3.635,0.072
			c0.144,0,2.16-0.072,3.132-0.072c0.36,0,0.504,0.072,0.504,0.252c0,0.108-0.144,0.252-0.252,0.252c-0.216,0-0.432,0-0.792,0.072
			c-0.864,0.18-1.044,0.611-1.116,1.691c-0.036,0.972-0.036,1.908-0.036,6.659v0.648c0,0.18,0.072,0.18,0.18,0.18h13.21
			c0.108,0,0.18,0,0.18-0.18v-0.648c0-4.751-0.036-5.688-0.072-6.659c-0.072-1.044-0.216-1.548-1.26-1.691
			c-0.252-0.036-0.792-0.072-1.08-0.072c-0.144,0-0.252-0.144-0.252-0.252c0-0.18,0.144-0.252,0.504-0.252
			c1.404,0,3.456,0.072,3.6,0.072c0.18,0,2.195-0.072,3.131-0.072c0.36,0,0.54,0.072,0.54,0.252c0,0.108-0.144,0.252-0.288,0.252
			c-0.216,0-0.396,0-0.792,0.072c-0.828,0.18-1.008,0.611-1.08,1.691c-0.072,0.972-0.072,1.836-0.072,6.587L121.404,29.359
			L121.404,29.359z"/>
		<path fill="#333333" d="M131.846,23.96c0-4.751,0-5.615-0.072-6.587c-0.072-1.044-0.252-1.548-1.296-1.691
			c-0.252-0.036-0.792-0.072-1.08-0.072c-0.108,0-0.252-0.144-0.252-0.252c0-0.18,0.144-0.252,0.504-0.252
			c1.439,0,3.491,0.072,3.671,0.072c0.216,0,6.839,0.036,7.559,0c0.612-0.036,1.188-0.145,1.44-0.181
			c0.144-0.035,0.288-0.144,0.432-0.144c0.108,0,0.144,0.144,0.144,0.288c0,0.216-0.18,0.576-0.252,1.439
			c-0.036,0.288-0.108,1.656-0.18,2.016c-0.036,0.145-0.144,0.324-0.288,0.324c-0.18,0-0.252-0.144-0.252-0.396
			c0-0.217-0.036-0.721-0.18-1.08c-0.216-0.504-0.54-0.72-2.268-0.936c-0.54-0.072-4.211-0.108-4.571-0.108
			c-0.144,0-0.18,0.108-0.18,0.324v8.314c0,0.216,0,0.324,0.18,0.324c0.396,0,4.571,0,5.291-0.072
			c0.756-0.072,1.224-0.107,1.548-0.432c0.216-0.216,0.36-0.396,0.468-0.396c0.108,0,0.18,0.072,0.18,0.252
			c0,0.181-0.18,0.685-0.252,1.692c-0.072,0.611-0.144,1.764-0.144,1.979c0,0.252-0.072,0.576-0.288,0.576
			c-0.144,0-0.216-0.108-0.216-0.288c0-0.288,0-0.612-0.144-1.008c-0.108-0.432-0.396-0.792-1.62-0.936
			c-0.864-0.108-4.248-0.145-4.788-0.145c-0.18,0-0.216,0.108-0.216,0.216v2.556c0,1.044-0.036,4.607,0,5.22
			c0.072,2.052,0.648,2.447,3.779,2.447c0.828,0,2.34,0,3.168-0.323c0.828-0.36,1.26-0.9,1.439-2.124
			c0.072-0.36,0.144-0.468,0.324-0.468c0.18,0,0.216,0.252,0.216,0.468c0,0.216-0.252,2.304-0.432,2.951
			c-0.216,0.792-0.54,0.792-1.764,0.792c-2.375,0-4.211-0.071-5.507-0.107c-1.332-0.072-2.16-0.072-2.627-0.072
			c-0.072,0-0.684,0-1.368,0.036c-0.612,0.036-1.332,0.072-1.836,0.072c-0.324,0-0.504-0.072-0.504-0.252
			c0-0.108,0.072-0.252,0.252-0.252c0.288,0,0.684-0.108,0.972-0.145c0.612-0.107,0.684-0.72,0.828-1.62
			c0.18-1.26,0.18-3.671,0.18-6.623V23.96H131.846z"/>
		<path fill="#333333" d="M149.018,37.818c-0.432-0.216-0.468-0.323-0.468-1.151c0-1.512,0.144-2.736,0.18-3.24
			c0-0.323,0.072-0.504,0.252-0.504c0.18,0,0.288,0.108,0.288,0.36s0,0.684,0.108,1.116c0.504,2.231,2.88,3.023,5.003,3.023
			c3.132,0,4.751-1.764,4.751-4.067c0-2.196-1.188-3.24-3.996-5.327l-1.439-1.08c-3.42-2.556-4.536-4.428-4.536-6.552
			c0-3.6,2.844-5.759,7.019-5.759c1.26,0,2.52,0.18,3.276,0.359c0.612,0.145,0.864,0.145,1.116,0.145s0.324,0.036,0.324,0.216
			c0,0.144-0.144,1.152-0.144,3.239c0,0.469-0.036,0.685-0.252,0.685c-0.216,0-0.252-0.146-0.288-0.396
			c-0.036-0.359-0.288-1.188-0.468-1.512c-0.216-0.359-1.26-1.512-4.104-1.512c-2.304,0-4.211,1.152-4.211,3.312
			c0,1.944,0.972,3.06,4.104,5.184l0.9,0.611c3.852,2.628,5.184,4.752,5.184,7.38c0,1.8-0.684,3.743-2.952,5.219
			c-1.332,0.864-3.312,1.08-5.04,1.08C152.15,38.646,150.314,38.431,149.018,37.818z"/>
		<path fill="#333333" d="M175.369,15.718c0.396-1.008,0.54-1.188,0.756-1.188c0.323,0,0.432,0.433,0.756,1.116
			c0.575,1.296,5.65,13.93,7.595,18.573c1.152,2.736,2.017,3.132,2.7,3.348c0.468,0.145,0.937,0.181,1.26,0.181
			c0.181,0,0.396,0.071,0.396,0.252c0,0.18-0.359,0.252-0.72,0.252c-0.469,0-2.809,0-5.004-0.072
			c-0.612-0.036-1.116-0.036-1.116-0.216c0-0.145,0.072-0.145,0.217-0.216c0.18-0.072,0.504-0.324,0.287-0.828l-2.844-7.02
			c-0.072-0.144-0.106-0.18-0.288-0.18h-7.307c-0.144,0-0.252,0.072-0.324,0.252l-1.8,4.896c-0.288,0.756-0.468,1.512-0.468,2.052
			c0,0.611,0.54,0.828,1.08,0.828h0.288c0.252,0,0.324,0.107,0.324,0.252c0,0.18-0.18,0.252-0.468,0.252
			c-0.756,0-2.483-0.108-2.844-0.108c-0.324,0-1.908,0.108-3.203,0.108c-0.396,0-0.612-0.072-0.612-0.252
			c0-0.145,0.144-0.252,0.288-0.252c0.216,0,0.684-0.036,0.936-0.072c1.44-0.18,2.052-1.26,2.664-2.808L175.369,15.718z
			 M178.896,28.46c0.146,0,0.146-0.072,0.108-0.216l-3.133-8.388c-0.18-0.468-0.359-0.468-0.539,0l-2.951,8.388
			c-0.036,0.144,0,0.216,0.107,0.216H178.896z"/>
		<path fill="#333333" d="M191.39,23.96c0-4.751,0-5.615-0.071-6.587c-0.072-0.972-0.252-1.548-1.296-1.691
			c-0.253-0.036-0.793-0.072-1.08-0.072c-0.107,0-0.252-0.144-0.252-0.252c0-0.18,0.145-0.252,0.504-0.252
			c1.438,0,3.348,0.072,3.636,0.072s2.268-0.072,3.202-0.072c0.36,0,0.541,0.072,0.541,0.252c0,0.108-0.145,0.252-0.289,0.252
			c-0.215,0-0.396,0-0.791,0.072c-0.828,0.144-1.008,0.684-1.079,1.691c-0.072,0.972-0.072,1.836-0.072,6.587v4.284
			c0,4.427,0.972,6.263,2.34,7.486c1.548,1.404,2.915,1.656,4.715,1.656c1.944,0,3.816-0.864,4.896-2.16
			c1.477-1.764,1.8-4.283,1.8-7.415V23.96c0-4.751-0.036-5.615-0.071-6.587c-0.036-0.972-0.217-1.548-1.261-1.691
			c-0.252-0.036-0.791-0.072-1.079-0.072c-0.146,0-0.252-0.144-0.252-0.252c0-0.18,0.144-0.252,0.504-0.252
			c1.403,0,3.239,0.072,3.419,0.072c0.217,0,1.729-0.072,2.664-0.072c0.36,0,0.504,0.072,0.504,0.252
			c0,0.108-0.107,0.252-0.252,0.252c-0.216,0-0.396,0-0.792,0.072c-0.864,0.18-1.044,0.684-1.116,1.691
			c-0.07,0.972-0.035,1.836-0.035,6.587v3.276c0,3.312-0.433,7.019-2.951,9.179c-2.305,1.979-4.752,2.231-6.623,2.231
			c-1.045,0-4.355-0.072-6.587-2.16c-1.548-1.439-2.771-3.563-2.771-8.026v-4.5H191.39z"/>
		<path fill="#333333" d="M219.362,23.96c0-4.751,0-5.615-0.072-6.587c-0.071-1.044-0.252-1.548-1.295-1.691
			c-0.252-0.036-0.793-0.072-1.08-0.072c-0.108,0-0.252-0.144-0.252-0.252c0-0.18,0.144-0.252,0.504-0.252
			c1.439,0,3.562,0.072,3.742,0.072c0.324,0,2.988-0.072,3.961-0.072c2.016,0,4.246,0.18,5.902,1.332
			c0.793,0.576,2.195,2.052,2.195,4.175c0,2.269-0.936,4.464-3.889,6.983c2.593,3.24,4.789,6.012,6.623,7.919
			c1.692,1.729,2.736,2.016,3.529,2.124c0.61,0.108,0.936,0.108,1.114,0.108c0.181,0,0.288,0.144,0.288,0.252
			c0,0.18-0.18,0.252-0.756,0.252h-1.979c-1.801,0-2.593-0.181-3.385-0.612c-1.367-0.72-2.52-2.195-4.318-4.499
			c-1.332-1.656-2.735-3.636-3.42-4.464c-0.145-0.144-0.217-0.18-0.433-0.18l-4.031-0.072c-0.145,0-0.216,0.072-0.216,0.252v0.72
			c0,2.952,0,5.327,0.145,6.587c0.107,0.9,0.287,1.477,1.26,1.62c0.432,0.072,1.115,0.145,1.404,0.145
			c0.215,0,0.252,0.144,0.252,0.252c0,0.144-0.146,0.252-0.504,0.252c-1.729,0-3.744-0.108-3.889-0.108
			c-0.036,0-2.16,0.108-3.132,0.108c-0.324,0-0.504-0.072-0.504-0.252c0-0.108,0.071-0.252,0.252-0.252
			c0.288,0,0.685-0.072,0.972-0.145c0.612-0.144,0.684-0.72,0.828-1.62c0.18-1.26,0.18-3.671,0.18-6.623v-5.4H219.362z
			 M222.098,26.552c0,0.181,0.071,0.288,0.216,0.396c0.469,0.252,2.088,0.468,3.491,0.468c0.756,0,1.62-0.036,2.376-0.54
			c1.08-0.72,1.907-2.34,1.907-4.68c0-3.815-2.088-6.011-5.472-6.011c-0.937,0-1.943,0.107-2.268,0.18
			c-0.145,0.072-0.252,0.18-0.252,0.36L222.098,26.552L222.098,26.552z"/>
		<path fill="#333333" d="M246.433,29.359c0,2.952,0,5.363,0.145,6.623c0.107,0.9,0.217,1.477,1.151,1.62
			c0.468,0.072,1.151,0.145,1.439,0.145c0.181,0,0.252,0.144,0.252,0.252c0,0.144-0.144,0.252-0.505,0.252
			c-1.764,0-3.814-0.108-3.959-0.108c-0.18,0-2.159,0.108-3.131,0.108c-0.324,0-0.504-0.072-0.504-0.252
			c0-0.108,0.071-0.252,0.252-0.252c0.287,0,0.684-0.072,0.972-0.145c0.612-0.144,0.72-0.72,0.827-1.62
			c0.145-1.26,0.181-3.671,0.181-6.623V23.96c0-4.751,0-5.615-0.071-6.587c-0.072-1.044-0.324-1.512-1.009-1.655
			c-0.358-0.072-0.756-0.108-0.972-0.108c-0.145,0-0.252-0.144-0.252-0.252c0-0.18,0.145-0.252,0.504-0.252
			c1.044,0,3.023,0.072,3.203,0.072c0.145,0,2.195-0.072,3.168-0.072c0.359,0,0.504,0.072,0.504,0.252
			c0,0.108-0.145,0.252-0.252,0.252c-0.217,0-0.432,0-0.793,0.072c-0.862,0.18-1.043,0.611-1.114,1.691
			c-0.036,0.972-0.036,1.836-0.036,6.587V29.359L246.433,29.359z"/>
		<path fill="#333333" d="M257.305,35.371c-3.096-2.664-3.853-6.155-3.853-9.071c0-2.052,0.757-5.615,3.563-8.351
			c1.908-1.836,4.788-3.275,9.647-3.275c1.26,0,3.06,0.107,4.606,0.359c1.188,0.216,2.195,0.433,3.239,0.468
			c0.324,0,0.396,0.145,0.396,0.324c0,0.252-0.071,0.612-0.145,1.728c-0.036,1.008-0.036,2.7-0.072,3.132
			c-0.035,0.468-0.18,0.648-0.359,0.648c-0.215,0-0.252-0.216-0.252-0.648c0-1.188-0.504-2.411-1.332-3.06
			c-1.115-0.936-3.42-1.691-6.228-1.691c-4.067,0-6.011,1.08-7.127,2.123c-2.34,2.16-2.844,4.896-2.844,7.991
			c0,5.867,4.644,11.087,11.411,11.087c2.375,0,3.959-0.18,5.219-1.439c0.686-0.685,1.116-1.98,1.225-2.556
			c0.071-0.324,0.107-0.433,0.323-0.433c0.146,0,0.288,0.216,0.288,0.433c0,0.216-0.432,2.879-0.756,3.923
			c-0.18,0.576-0.252,0.685-0.792,0.9c-1.296,0.504-3.672,0.684-5.724,0.684C262.993,38.646,259.79,37.53,257.305,35.371z"/>
		<path fill="#333333" d="M287.364,15.718c0.396-1.008,0.541-1.188,0.756-1.188c0.324,0,0.434,0.433,0.757,1.116
			c0.575,1.296,5.651,13.93,7.596,18.573c1.151,2.736,2.017,3.132,2.699,3.348c0.468,0.145,0.937,0.181,1.26,0.181
			c0.181,0,0.396,0.071,0.396,0.252c0,0.18-0.359,0.252-0.719,0.252c-0.47,0-2.809,0-5.004-0.072
			c-0.611-0.036-1.117-0.036-1.117-0.216c0-0.145,0.072-0.145,0.217-0.216c0.181-0.072,0.505-0.324,0.289-0.828l-2.844-7.02
			c-0.072-0.144-0.108-0.18-0.289-0.18h-7.308c-0.144,0-0.252,0.072-0.323,0.252l-1.8,4.896c-0.288,0.756-0.469,1.512-0.469,2.052
			c0,0.611,0.54,0.828,1.08,0.828h0.288c0.252,0,0.324,0.107,0.324,0.252c0,0.18-0.181,0.252-0.469,0.252
			c-0.756,0-2.484-0.108-2.844-0.108c-0.324,0-1.908,0.108-3.204,0.108c-0.396,0-0.61-0.072-0.61-0.252
			c0-0.145,0.144-0.252,0.287-0.252c0.217,0,0.685-0.036,0.937-0.072c1.438-0.18,2.052-1.26,2.663-2.808L287.364,15.718z
			 M290.893,28.46c0.144,0,0.144-0.072,0.107-0.216l-3.132-8.388c-0.18-0.468-0.359-0.468-0.539,0l-2.952,8.388
			c-0.036,0.144,0,0.216,0.108,0.216H290.893z"/>
		<path fill="#333333" d="M307.885,29.432c0,4.499,0.071,6.335,0.647,6.875c0.504,0.504,1.729,0.72,4.211,0.72
			c1.656,0,3.061-0.036,3.815-0.936c0.396-0.468,0.648-1.116,0.757-1.728c0.035-0.216,0.145-0.396,0.323-0.396
			c0.144,0,0.216,0.145,0.216,0.468c0,0.324-0.216,2.16-0.468,3.061c-0.216,0.72-0.323,0.827-2.017,0.827
			c-2.268,0-4.031-0.036-5.508-0.107c-1.438-0.036-2.52-0.072-3.455-0.072c-0.145,0-0.685,0-1.295,0.036
			c-0.648,0.036-1.332,0.072-1.836,0.072c-0.324,0-0.504-0.072-0.504-0.252c0-0.108,0.071-0.252,0.252-0.252
			c0.287,0,0.684-0.072,0.972-0.145c0.612-0.144,0.684-0.72,0.827-1.62c0.181-1.26,0.181-3.671,0.181-6.623v-5.4
			c0-4.751,0-5.615-0.072-6.587c-0.071-1.044-0.252-1.548-1.295-1.691c-0.252-0.036-0.792-0.072-1.08-0.072
			c-0.108,0-0.252-0.144-0.252-0.252c0-0.18,0.144-0.252,0.504-0.252c1.439,0,3.419,0.072,3.601,0.072
			c0.144,0,2.52-0.072,3.49-0.072c0.324,0,0.504,0.072,0.504,0.252c0,0.108-0.144,0.216-0.252,0.216
			c-0.215,0-0.684,0.036-1.043,0.072c-0.937,0.18-1.115,0.647-1.188,1.728c-0.036,0.972-0.036,1.836-0.036,6.587L307.885,29.432
			L307.885,29.432z"/>
	</g>
	<g enable-background="new    ">
		<path fill="#333333" d="M93.627,64.486c0.088,0.791,0.242,2.022,1.188,2.332c0.638,0.197,1.21,0.197,1.43,0.197
			c0.11,0,0.176,0.021,0.176,0.109c0,0.133-0.198,0.198-0.462,0.198c-0.484,0-2.86-0.021-3.674-0.089
			c-0.506-0.043-0.616-0.109-0.616-0.219c0-0.089,0.044-0.133,0.154-0.154c0.11-0.022,0.132-0.396,0.088-0.793l-1.056-11.42h-0.066
			L85.398,66.09c-0.462,0.969-0.528,1.167-0.726,1.167c-0.154,0-0.264-0.221-0.682-1.013c-0.572-1.078-2.464-4.885-2.574-5.104
			c-0.198-0.396-2.663-5.678-2.904-6.271h-0.088l-0.88,10.21c-0.022,0.353-0.022,0.748-0.022,1.122c0,0.33,0.242,0.615,0.572,0.683
			c0.374,0.089,0.704,0.109,0.836,0.109c0.088,0,0.176,0.044,0.176,0.11c0,0.153-0.132,0.197-0.396,0.197
			c-0.814,0-1.87-0.066-2.046-0.066c-0.198,0-1.254,0.066-1.848,0.066c-0.22,0-0.374-0.044-0.374-0.197c0-0.066,0.11-0.11,0.22-0.11
			c0.176,0,0.33,0,0.66-0.065c0.726-0.133,0.792-0.99,0.88-1.826l1.584-14.347c0.022-0.241,0.11-0.396,0.242-0.396
			c0.132,0,0.22,0.088,0.33,0.328l6.733,13.842l6.469-13.818c0.088-0.197,0.176-0.352,0.33-0.352c0.154,0,0.22,0.176,0.264,0.594
			L93.627,64.486z"/>
		<path fill="#333333" d="M105.329,52.891c4.357,0,7.657,2.662,7.657,7.02c0,4.181-3.103,7.635-7.767,7.635
			c-5.303,0-7.569-3.982-7.569-7.35C97.65,57.182,99.982,52.891,105.329,52.891z M105.769,66.773c1.738,0,5.237-0.924,5.237-6.336
			c0-4.489-2.728-6.844-5.787-6.844c-3.234,0-5.567,2.024-5.567,6.096C99.652,64.046,102.271,66.773,105.769,66.773z"/>
		<path fill="#333333" d="M121.301,61.867c0,1.805,0,3.279,0.088,4.049c0.066,0.55,0.154,0.902,0.748,0.99
			c0.264,0.044,0.704,0.088,0.88,0.088c0.132,0,0.154,0.088,0.154,0.154c0,0.088-0.088,0.153-0.308,0.153
			c-1.056,0-2.288-0.065-2.398-0.065c-0.088,0-1.43,0.065-2.002,0.065c-0.22,0-0.308-0.044-0.308-0.153
			c0-0.066,0.044-0.133,0.154-0.133c0.176,0,0.396-0.043,0.572-0.088c0.396-0.089,0.506-0.463,0.572-1.013
			c0.088-0.771,0.088-2.244,0.088-4.049v-7.854l-2.794,0.045c-1.21,0.021-1.672,0.153-1.958,0.594
			c-0.22,0.33-0.242,0.461-0.308,0.594c-0.044,0.154-0.11,0.177-0.198,0.177c-0.044,0-0.132-0.044-0.132-0.153
			c0-0.199,0.374-1.871,0.418-2.024c0.022-0.11,0.132-0.353,0.198-0.353c0.132,0,0.33,0.153,0.858,0.221
			c0.55,0.065,1.298,0.088,1.518,0.088h7.305c0.638,0,1.078-0.045,1.386-0.088c0.286-0.045,0.462-0.088,0.55-0.088
			s0.088,0.108,0.088,0.22c0,0.571-0.066,1.914-0.066,2.135c0,0.153-0.088,0.242-0.176,0.242c-0.088,0-0.132-0.065-0.154-0.33
			l-0.022-0.198c-0.066-0.572-0.484-0.99-2.332-1.033l-2.42-0.045L121.301,61.867L121.301,61.867z"/>
		<path fill="#333333" d="M142.312,61.867c0,1.805,0.022,3.279,0.11,4.049c0.066,0.55,0.11,0.902,0.704,0.99
			c0.264,0.044,0.704,0.088,0.858,0.088c0.132,0,0.176,0.088,0.176,0.154c0,0.088-0.11,0.153-0.33,0.153
			c-1.056,0-2.289-0.065-2.398-0.065c-0.088,0-1.342,0.065-1.915,0.065c-0.22,0-0.308-0.044-0.308-0.153
			c0-0.066,0.044-0.154,0.154-0.154c0.176,0,0.396-0.044,0.572-0.088c0.396-0.088,0.462-0.463,0.528-1.012
			c0.088-0.771,0.088-2.18,0.088-3.983v-1.87c0-0.088-0.044-0.109-0.11-0.109h-8.075c-0.066,0-0.11,0.021-0.11,0.109v1.87
			c0,1.805,0,3.235,0.088,4.005c0.066,0.55,0.132,0.902,0.704,0.99c0.286,0.044,0.704,0.088,0.88,0.088
			c0.11,0,0.154,0.088,0.154,0.154c0,0.088-0.088,0.153-0.308,0.153c-1.078,0-2.311-0.065-2.398-0.065
			c-0.11,0-1.342,0.065-1.936,0.065c-0.198,0-0.308-0.044-0.308-0.153c0-0.066,0.044-0.154,0.154-0.154
			c0.176,0,0.418-0.044,0.594-0.088c0.374-0.088,0.418-0.44,0.506-0.99c0.11-0.77,0.11-2.244,0.11-4.049v-3.301
			c0-2.903,0-3.433-0.044-4.026c-0.044-0.638-0.154-0.944-0.792-1.034c-0.154-0.021-0.484-0.044-0.66-0.044
			c-0.066,0-0.154-0.088-0.154-0.153c0-0.109,0.088-0.154,0.308-0.154c0.88,0,2.112,0.045,2.222,0.045
			c0.088,0,1.32-0.045,1.915-0.045c0.22,0,0.308,0.045,0.308,0.154c0,0.065-0.088,0.153-0.154,0.153c-0.132,0-0.264,0-0.484,0.044
			c-0.528,0.11-0.638,0.375-0.682,1.034c-0.022,0.595-0.022,1.167-0.022,4.071v0.396c0,0.11,0.044,0.11,0.11,0.11h8.075
			c0.066,0,0.11,0,0.11-0.11v-0.396c0-2.904-0.022-3.478-0.044-4.071c-0.044-0.638-0.132-0.944-0.77-1.034
			c-0.154-0.021-0.484-0.044-0.66-0.044c-0.088,0-0.154-0.088-0.154-0.153c0-0.109,0.088-0.154,0.308-0.154
			c0.858,0,2.112,0.045,2.2,0.045c0.11,0,1.342-0.045,1.914-0.045c0.22,0,0.33,0.045,0.33,0.154c0,0.065-0.088,0.153-0.176,0.153
			c-0.132,0-0.242,0-0.484,0.044c-0.506,0.11-0.616,0.375-0.66,1.034c-0.044,0.595-0.044,1.123-0.044,4.026V61.867L142.312,61.867z"
			/>
		<path fill="#333333" d="M148.69,58.566c0-2.903,0-3.433-0.044-4.026c-0.044-0.638-0.154-0.944-0.792-1.034
			c-0.154-0.021-0.484-0.044-0.66-0.044c-0.066,0-0.154-0.088-0.154-0.153c0-0.109,0.088-0.154,0.308-0.154
			c0.88,0,2.134,0.045,2.244,0.045c0.132,0,4.181,0.021,4.621,0c0.374-0.021,0.726-0.088,0.88-0.11
			c0.088-0.021,0.176-0.088,0.264-0.088c0.066,0,0.088,0.088,0.088,0.177c0,0.133-0.11,0.352-0.154,0.881
			c-0.022,0.176-0.066,1.012-0.11,1.231c-0.022,0.088-0.088,0.196-0.176,0.196c-0.11,0-0.154-0.088-0.154-0.241
			c0-0.132-0.022-0.438-0.11-0.659c-0.132-0.309-0.33-0.439-1.386-0.572c-0.33-0.043-2.574-0.065-2.794-0.065
			c-0.088,0-0.11,0.065-0.11,0.198v5.082c0,0.133,0,0.197,0.11,0.197c0.242,0,2.794,0,3.234-0.044
			c0.462-0.044,0.748-0.065,0.946-0.264c0.132-0.132,0.22-0.242,0.286-0.242s0.11,0.044,0.11,0.153s-0.11,0.419-0.154,1.035
			c-0.044,0.373-0.088,1.078-0.088,1.209c0,0.154-0.044,0.354-0.176,0.354c-0.088,0-0.132-0.066-0.132-0.177
			c0-0.177,0-0.374-0.088-0.616c-0.066-0.264-0.242-0.482-0.99-0.57c-0.528-0.066-2.596-0.09-2.926-0.09
			c-0.11,0-0.132,0.066-0.132,0.133v1.562c0,0.639-0.022,2.816,0,3.189c0.044,1.256,0.396,1.498,2.31,1.498
			c0.506,0,1.43,0,1.937-0.199c0.506-0.221,0.77-0.551,0.88-1.299c0.044-0.22,0.088-0.285,0.198-0.285
			c0.11,0,0.132,0.153,0.132,0.285c0,0.133-0.154,1.408-0.264,1.806c-0.132,0.483-0.33,0.483-1.078,0.483
			c-1.452,0-2.574-0.043-3.366-0.065c-0.814-0.044-1.32-0.044-1.606-0.044c-0.044,0-0.418,0-0.836,0.021
			c-0.374,0.021-0.814,0.045-1.122,0.045c-0.198,0-0.308-0.045-0.308-0.154c0-0.066,0.044-0.154,0.154-0.154
			c0.176,0,0.418-0.064,0.594-0.088c0.374-0.066,0.418-0.44,0.506-0.99c0.11-0.77,0.11-2.244,0.11-4.049v-3.303H148.69z"/>
		<path fill="#333333" d="M160.812,58.566c0-2.903,0-3.433-0.044-4.026c-0.044-0.638-0.154-0.944-0.792-1.034
			c-0.154-0.021-0.484-0.044-0.66-0.044c-0.066,0-0.154-0.088-0.154-0.153c0-0.109,0.088-0.154,0.308-0.154
			c0.88,0,2.178,0.045,2.288,0.045c0.198,0,1.827-0.045,2.42-0.045c1.232,0,2.597,0.111,3.609,0.814
			c0.484,0.352,1.342,1.254,1.342,2.553c0,1.387-0.572,2.729-2.376,4.269c1.584,1.979,2.926,3.675,4.048,4.841
			c1.034,1.057,1.672,1.232,2.156,1.299c0.374,0.065,0.572,0.065,0.682,0.065s0.176,0.088,0.176,0.153
			c0,0.11-0.109,0.154-0.462,0.154h-1.21c-1.1,0-1.584-0.109-2.068-0.373c-0.836-0.44-1.54-1.344-2.641-2.752
			c-0.814-1.012-1.672-2.223-2.09-2.729c-0.088-0.088-0.132-0.109-0.264-0.109l-2.464-0.044c-0.088,0-0.132,0.044-0.132,0.153v0.439
			c0,1.805,0,3.258,0.088,4.026c0.066,0.55,0.176,0.901,0.77,0.989c0.264,0.045,0.682,0.089,0.858,0.089
			c0.132,0,0.154,0.088,0.154,0.153c0,0.088-0.088,0.154-0.308,0.154c-1.056,0-2.289-0.066-2.376-0.066
			c-0.022,0-1.32,0.066-1.914,0.066c-0.198,0-0.308-0.044-0.308-0.154c0-0.065,0.044-0.153,0.154-0.153
			c0.176,0,0.418-0.044,0.594-0.089c0.374-0.088,0.418-0.439,0.506-0.989c0.11-0.771,0.11-2.244,0.11-4.049V58.566L160.812,58.566z
			 M162.484,60.15c0,0.11,0.044,0.177,0.132,0.242c0.286,0.153,1.276,0.287,2.134,0.287c0.462,0,0.99-0.022,1.452-0.33
			c0.66-0.44,1.166-1.432,1.166-2.86c0-2.333-1.276-3.675-3.344-3.675c-0.572,0-1.188,0.065-1.386,0.109
			c-0.088,0.044-0.154,0.109-0.154,0.221V60.15z"/>
		<path fill="#333333" d="M175.596,58.566c0-2.903,0-3.433-0.044-4.026c-0.044-0.638-0.154-0.944-0.792-1.034
			c-0.154-0.021-0.484-0.044-0.66-0.044c-0.066,0-0.154-0.088-0.154-0.153c0-0.109,0.088-0.154,0.308-0.154
			c0.881,0,2.091,0.045,2.2,0.045c0.374,0,4.576,0.021,5.018,0c0.374-0.021,0.704-0.021,0.88-0.088
			c0.11-0.022,0.198-0.11,0.264-0.11c0.088,0,0.132,0.088,0.132,0.177c0,0.133-0.088,0.352-0.152,0.881
			c-0.022,0.176-0.044,1.012-0.088,1.231c-0.022,0.088-0.088,0.196-0.178,0.196c-0.088,0-0.152-0.088-0.152-0.219
			c0-0.154-0.066-0.463-0.177-0.705c-0.109-0.242-0.571-0.549-1.319-0.549l-3.169-0.045c-0.11,0-0.154,0.045-0.154,0.197v5.105
			c0,0.108,0,0.176,0.133,0.176l2.641-0.022c0.33,0,0.615,0,0.881-0.021c0.462-0.045,0.726-0.11,0.9-0.33
			c0.089-0.11,0.178-0.198,0.242-0.198c0.088,0,0.11,0.065,0.11,0.153c0,0.109-0.132,0.419-0.176,1.035
			c-0.044,0.373-0.066,1.121-0.066,1.254c0,0.176-0.044,0.373-0.176,0.373c-0.11,0-0.132-0.088-0.132-0.176
			c-0.022-0.197-0.045-0.461-0.134-0.683c-0.088-0.265-0.396-0.506-0.989-0.595c-0.483-0.065-2.771-0.043-3.103-0.043
			c-0.109,0-0.133,0.043-0.133,0.176v1.496c0,1.849,0,3.322,0.088,4.049c0.066,0.55,0.177,0.902,0.704,0.99
			c0.286,0.044,0.704,0.088,0.881,0.088c0.109,0,0.153,0.088,0.153,0.154c0,0.088-0.088,0.153-0.309,0.153
			c-1.077,0-2.331-0.065-2.42-0.065c-0.109,0-1.319,0.065-1.915,0.065c-0.197,0-0.308-0.044-0.308-0.153
			c0-0.066,0.044-0.154,0.154-0.154c0.176,0,0.418-0.064,0.594-0.088c0.374-0.066,0.418-0.44,0.506-0.99
			c0.11-0.77,0.11-2.244,0.11-4.049V58.566L175.596,58.566z"/>
		<path fill="#333333" d="M186.375,58.566c0-2.903,0-3.433-0.044-4.026c-0.044-0.595-0.153-0.944-0.792-1.034
			c-0.153-0.021-0.483-0.044-0.66-0.044c-0.064,0-0.153-0.088-0.153-0.153c0-0.109,0.089-0.154,0.309-0.154
			c0.88,0,2.046,0.045,2.223,0.045c0.176,0,1.386-0.045,1.958-0.045c0.22,0,0.33,0.045,0.33,0.154c0,0.065-0.088,0.153-0.176,0.153
			c-0.132,0-0.242,0-0.484,0.044c-0.506,0.09-0.616,0.419-0.66,1.034c-0.044,0.595-0.044,1.123-0.044,4.026v2.619
			c0,2.705,0.595,3.828,1.432,4.575c0.944,0.858,1.781,1.013,2.881,1.013c1.188,0,2.332-0.527,2.992-1.319
			c0.901-1.078,1.101-2.618,1.101-4.532v-2.354c0-2.904-0.022-3.434-0.044-4.027c-0.022-0.594-0.133-0.945-0.771-1.034
			c-0.152-0.021-0.482-0.044-0.66-0.044c-0.088,0-0.152-0.088-0.152-0.152c0-0.11,0.088-0.154,0.308-0.154
			c0.858,0,1.979,0.044,2.091,0.044c0.133,0,1.057-0.044,1.629-0.044c0.219,0,0.308,0.044,0.308,0.154
			c0,0.064-0.065,0.152-0.153,0.152c-0.133,0-0.242,0-0.484,0.044c-0.527,0.11-0.639,0.419-0.683,1.034
			c-0.044,0.595-0.021,1.123-0.021,4.027v2.002c0,2.023-0.265,4.291-1.805,5.609c-1.408,1.211-2.904,1.364-4.049,1.364
			c-0.639,0-2.663-0.044-4.026-1.319c-0.946-0.881-1.694-2.179-1.694-4.906v-2.752H186.375z"/>
		<path fill="#333333" d="M203.622,65.542c-1.893-1.628-2.354-3.763-2.354-5.545c0-1.254,0.463-3.433,2.18-5.104
			c1.166-1.121,2.926-2.002,5.896-2.002c0.771,0,1.87,0.065,2.815,0.221c0.728,0.132,1.344,0.264,1.98,0.285
			c0.198,0,0.242,0.088,0.242,0.199c0,0.152-0.044,0.373-0.088,1.055c-0.021,0.617-0.021,1.65-0.045,1.914
			c-0.021,0.287-0.109,0.396-0.221,0.396c-0.131,0-0.152-0.132-0.152-0.396c0-0.726-0.309-1.474-0.814-1.869
			c-0.682-0.572-2.09-1.034-3.807-1.034c-2.486,0-3.676,0.659-4.355,1.299c-1.432,1.319-1.738,2.992-1.738,4.886
			c0,3.586,2.838,6.775,6.975,6.775c1.452,0,2.421-0.109,3.189-0.88c0.418-0.418,0.684-1.21,0.748-1.562
			c0.045-0.199,0.066-0.265,0.199-0.265c0.088,0,0.176,0.132,0.176,0.265c0,0.131-0.265,1.76-0.463,2.397
			c-0.108,0.353-0.152,0.418-0.482,0.55c-0.793,0.309-2.245,0.418-3.499,0.418C207.099,67.544,205.141,66.861,203.622,65.542z"/>
		<path fill="#333333" d="M219.045,58.566c0-2.903,0-3.433-0.044-4.026c-0.045-0.638-0.153-0.944-0.792-1.034
			c-0.154-0.021-0.484-0.044-0.66-0.044c-0.065,0-0.154-0.088-0.154-0.153c0-0.109,0.089-0.154,0.31-0.154
			c0.88,0,2.067,0.045,2.179,0.045c0.176,0,1.342-0.045,1.914-0.045c0.22,0,0.308,0.045,0.308,0.154
			c0,0.065-0.064,0.153-0.154,0.153c-0.131,0-0.24,0-0.482,0.044c-0.506,0.11-0.639,0.375-0.684,1.034
			c-0.043,0.595-0.043,1.123-0.043,4.026v1.123h0.088c0.309-0.354,3.763-3.764,4.488-4.512c0.551-0.55,1.057-1.033,1.057-1.343
			c0-0.241-0.088-0.353-0.242-0.374c-0.109-0.021-0.176-0.109-0.176-0.176c0-0.088,0.088-0.133,0.22-0.133
			c0.396,0,0.989,0.045,1.453,0.045c0.108,0,1.386-0.045,1.87-0.045c0.197,0,0.285,0.045,0.285,0.133s-0.043,0.154-0.197,0.154
			c-0.286,0-0.704,0.109-1.078,0.264c-0.792,0.354-1.166,0.771-2.023,1.585c-0.484,0.438-3.785,3.608-4.203,4.069
			c0.506,0.551,4.533,4.576,5.324,5.304c1.629,1.452,1.85,1.694,2.772,2.067c0.506,0.198,1.056,0.265,1.188,0.265
			c0.131,0,0.24,0.065,0.24,0.153s-0.088,0.154-0.418,0.154h-0.99c-0.55,0-0.9,0-1.342-0.044c-1.012-0.089-1.52-0.507-2.354-1.146
			c-0.881-0.682-4.95-4.973-5.875-6.072h-0.088v1.826c0,1.805,0,3.279,0.088,4.049c0.065,0.55,0.154,0.902,0.748,0.99
			c0.265,0.044,0.572,0.088,0.748,0.088c0.109,0,0.153,0.088,0.153,0.154c0,0.088-0.088,0.153-0.308,0.153
			c-0.946,0-2.112-0.065-2.268-0.065c-0.154,0-1.32,0.065-1.914,0.065c-0.197,0-0.309-0.044-0.309-0.153
			c0-0.066,0.044-0.154,0.154-0.154c0.176,0,0.418-0.044,0.594-0.088c0.374-0.088,0.419-0.44,0.507-0.99
			c0.109-0.77,0.109-2.244,0.109-4.049V58.566L219.045,58.566z"/>
		<path fill="#333333" d="M233.696,58.566c0-2.903,0-3.433-0.045-4.026c-0.043-0.638-0.152-0.944-0.791-1.034
			c-0.154-0.021-0.484-0.044-0.66-0.044c-0.065,0-0.153-0.088-0.153-0.153c0-0.109,0.088-0.154,0.308-0.154
			c0.881,0,2.135,0.045,2.244,0.045c0.133,0,4.182,0.021,4.621,0c0.374-0.021,0.727-0.088,0.88-0.11
			c0.088-0.021,0.177-0.088,0.265-0.088c0.065,0,0.088,0.088,0.088,0.177c0,0.133-0.109,0.352-0.153,0.881
			c-0.022,0.176-0.065,1.012-0.11,1.231c-0.021,0.088-0.088,0.196-0.176,0.196c-0.109,0-0.154-0.088-0.154-0.241
			c0-0.132-0.021-0.438-0.109-0.659c-0.133-0.309-0.33-0.439-1.387-0.572c-0.33-0.043-2.574-0.065-2.795-0.065
			c-0.088,0-0.108,0.065-0.108,0.198v5.082c0,0.133,0,0.197,0.108,0.197c0.242,0,2.795,0,3.235-0.044
			c0.462-0.044,0.748-0.065,0.944-0.264c0.134-0.132,0.222-0.242,0.287-0.242s0.109,0.044,0.109,0.153s-0.109,0.419-0.154,1.035
			c-0.043,0.373-0.088,1.078-0.088,1.209c0,0.154-0.043,0.354-0.176,0.354c-0.088,0-0.132-0.066-0.132-0.177
			c0-0.177,0-0.374-0.088-0.616c-0.065-0.264-0.242-0.482-0.99-0.57c-0.528-0.066-2.597-0.09-2.927-0.09
			c-0.11,0-0.133,0.066-0.133,0.133v1.562c0,0.639-0.021,2.816,0,3.189c0.045,1.256,0.396,1.498,2.312,1.498
			c0.507,0,1.431,0,1.937-0.199c0.507-0.221,0.771-0.551,0.881-1.299c0.044-0.22,0.088-0.285,0.197-0.285s0.133,0.153,0.133,0.285
			c0,0.133-0.154,1.408-0.266,1.806c-0.132,0.483-0.33,0.483-1.078,0.483c-1.451,0-2.574-0.043-3.365-0.065
			c-0.814-0.044-1.32-0.044-1.606-0.044c-0.044,0-0.418,0-0.836,0.021c-0.374,0.021-0.813,0.045-1.122,0.045
			c-0.197,0-0.309-0.045-0.309-0.154c0-0.066,0.044-0.154,0.154-0.154c0.176,0,0.418-0.064,0.594-0.088
			c0.375-0.066,0.419-0.44,0.507-0.99c0.108-0.77,0.108-2.244,0.108-4.049V58.566L233.696,58.566z"/>
	</g>
	<g enable-background="new    ">
		<path fill="#333333" d="M246.808,58.566c0-2.903,0-3.433-0.044-4.026c-0.044-0.638-0.153-0.944-0.792-1.034
			c-0.154-0.021-0.484-0.044-0.66-0.044c-0.066,0-0.154-0.088-0.154-0.153c0-0.109,0.088-0.154,0.31-0.154
			c0.88,0,2.178,0.045,2.288,0.045c0.197,0,1.826-0.045,2.42-0.045c1.232,0,2.597,0.111,3.609,0.814
			c0.482,0.352,1.342,1.254,1.342,2.553c0,1.387-0.572,2.729-2.377,4.269c1.584,1.979,2.927,3.675,4.049,4.841
			c1.033,1.057,1.673,1.232,2.156,1.299c0.373,0.065,0.572,0.065,0.683,0.065c0.108,0,0.176,0.088,0.176,0.153
			c0,0.11-0.11,0.154-0.462,0.154h-1.21c-1.101,0-1.585-0.109-2.067-0.373c-0.836-0.44-1.541-1.344-2.642-2.752
			c-0.813-1.012-1.672-2.223-2.09-2.729c-0.089-0.088-0.134-0.109-0.265-0.109l-2.465-0.044c-0.088,0-0.133,0.044-0.133,0.153v0.439
			c0,1.805,0,3.258,0.09,4.026c0.064,0.55,0.176,0.901,0.77,0.989c0.265,0.045,0.683,0.089,0.857,0.089
			c0.133,0,0.154,0.088,0.154,0.153c0,0.088-0.088,0.154-0.309,0.154c-1.057,0-2.288-0.066-2.377-0.066
			c-0.021,0-1.319,0.066-1.913,0.066c-0.198,0-0.31-0.044-0.31-0.154c0-0.065,0.045-0.153,0.154-0.153
			c0.176,0,0.418-0.044,0.594-0.089c0.374-0.088,0.418-0.439,0.506-0.989c0.11-0.771,0.11-2.244,0.11-4.049L246.808,58.566
			L246.808,58.566z M248.479,60.15c0,0.11,0.045,0.177,0.133,0.242c0.287,0.153,1.275,0.287,2.135,0.287
			c0.462,0,0.99-0.022,1.451-0.33c0.66-0.44,1.166-1.432,1.166-2.86c0-2.333-1.274-3.675-3.344-3.675
			c-0.572,0-1.188,0.065-1.387,0.109c-0.088,0.044-0.154,0.109-0.154,0.221V60.15z"/>
	</g>
</g>
<g id="Layer_2" display="none">
	
		<text transform="matrix(1 0 0 1 12.0684 38.1426)" display="inline" fill="#333333" font-family="'TrajanPro-Regular'" font-size="16">One</text>
	
		<text transform="matrix(1 0 0 1 53.2871 38.1426)" display="inline" fill="#333333" font-family="'TrajanPro-Regular'" font-size="36">Thesaurical</text>
	
		<text transform="matrix(1 0 0 1 54.2881 67.2363)" display="inline" fill="#333333" font-family="'TrajanPro-Regular'" font-size="22">Motherfucke</text>
	
		<text transform="matrix(1 0 0 1 224.3457 67.2363)" display="inline" fill="#333333" font-family="'TrajanPro-Regular'" font-size="22">r</text>
</g>
</svg>
